hpl_overground_slow_walk_RRA_states
nRows=8
nColumns=47

# SIMM Motion File Header:
name hpl_overground_slow_walk_RRA_states
datacolumns 47
datarows 8
otherdata 1
range 0.92100000000000048000 0.92450000000000043000
endheader
time	pelvis_tx	pelvis_ty	pelvis_tz	pelvis_tilt	pelvis_list	pelvis_rotation	hip_flexion_r	hip_adduction_r	hip_rotation_r	knee_angle_r	ankle_angle_r	subtalar_angle_r	mtp_angle_r	hip_flexion_l	hip_adduction_l	hip_rotation_l	knee_angle_l	ankle_angle_l	subtalar_angle_l	mtp_angle_l	lumbar_extension	lumbar_bending	lumbar_rotation	pelvis_tx_u	pelvis_ty_u	pelvis_tz_u	pelvis_tilt_u	pelvis_list_u	pelvis_rotation_u	hip_flexion_r_u	hip_adduction_r_u	hip_rotation_r_u	knee_angle_r_u	ankle_angle_r_u	subtalar_angle_r_u	mtp_angle_r_u	hip_flexion_l_u	hip_adduction_l_u	hip_rotation_l_u	knee_angle_l_u	ankle_angle_l_u	subtalar_angle_l_u	mtp_angle_l_u	lumbar_extension_u	lumbar_bending_u	lumbar_rotation_u
      0.92100000000000048000	     -0.43056209871596762000	      0.82496548898546807000	     -0.28309921310006025000	     14.99315642390838700000	      5.68171167566497810000	     11.22628373826963400000	      7.58933675147562960000	     -8.71545798134872560000	     -0.23193630657798406000	      5.86059830458255520000	      1.40124955950164830000	     -0.00000000000000986899	      0.00000000000000030597	    -43.56262959284480000000	     -1.02295350258896470000	     10.73151722549957300000	     -0.41356157263779669000	      4.14550166026229580000	     -0.00000000000006277317	      0.00000000000048290918	    -25.34192491500633400000	     -0.26263026761923597000	    -12.07462786397337100000	      1.90971803644317890000	     -0.24860743764716092000	     -0.07714021557685393800	     -1.71685242633635670000	    -50.92628434354967500000	     21.32717133412866800000	     68.41653386916753700000	     75.65988587477095000000	    -16.10755519263980800000	   -229.74714584755841000000	    -28.84737813049178000000	     -0.00000000000006191845	      0.00000000000002486327	      7.26837251969806710000	    -56.73267156496842000000	    -42.66053369874570900000	   -196.88674494908966000000	   -111.79102829733039000000	     -0.00000000000035288831	      0.00000000000251602633	     34.24224863992120000000	     70.56854883216823300000	     -3.27393642604085680000
      0.92150000000000043000	     -0.42960668515875772000	      0.82484176616354576000	     -0.28313763627835720000	     14.99237870749653100000	      5.65607001761474140000	     11.23689450761176400000	      7.62357048399520830000	     -8.67736251400171100000	     -0.24012139736129007000	      5.74519724382521170000	      1.38657870648540740000	     -0.00000000000000990013	      0.00000000000000031855	    -43.55882709779468300000	     -1.05143690599448950000	     10.70996958600884400000	     -0.51241205230852183000	      4.08911580446065330000	     -0.00000000000006292932	      0.00000000000048416065	    -25.32481466381781100000	     -0.22715874439894834000	    -12.07618361715688600000	      1.91193490392045410000	     -0.24628633498147917000	     -0.07655153032891561000	     -1.39409463326621120000	    -51.63978083676983700000	     21.11577689081214300000	     68.51754612509651600000	     76.72116046862970500000	    -16.63132331184931800000	   -231.85255479276003000000	    -29.83587197072897000000	     -0.00000000000006413838	      0.00000000000002689837	      7.94280856340548520000	    -57.20061611553397500000	    -43.52971656240075000000	   -198.51669675312957000000	   -113.75184805345995000000	     -0.00000000000026407362	      0.00000000000242393926	     34.19835266856041000000	     71.31687941861831300000	     -2.94907632334685800000
      0.92200000000000049000	     -0.42865016510625448000	      0.82471920020337686000	     -0.28317576367479963000	     14.99176225997441000000	      5.63007246577443700000	     11.24739939120680400000	      7.65785340887826660000	     -8.63873765454916410000	     -0.24856600840775545000	      5.62875039026218450000	      1.37141386594242000000	     -0.00000000000000993213	      0.00000000000000033193	    -43.55468559028437200000	     -1.08015380940002050000	     10.68798773020880300000	     -0.61207974891195505000	      4.03174882810544410000	     -0.00000000000006306981	      0.00000000000048538095	    -25.30772698103518100000	     -0.19131405151429451000	    -12.07757694600754000000	      1.91414400312096180000	     -0.24397991306236480000	     -0.07595711510202971000	     -1.07175116810428590000	    -52.34985031197782500000	     20.90363951750970600000	     68.61322023773506400000	     77.77742990952427200000	    -17.14533473475341900000	   -233.93010071340140000000	    -30.82329117093117100000	     -0.00000000000006415818	      0.00000000000002680745	      8.62440525737171800000	    -57.66670496302176500000	    -44.39757282244223500000	   -200.15551894869898000000	   -115.71862391528403000000	     -0.00000000000029360063	      0.00000000000244833161	     34.15194251508169300000	     72.06122958166690800000	     -2.62425154798525640000
      0.92250000000000043000	     -0.42769254251742844000	      0.82459778376860693000	     -0.28321359249862438000	     14.99130689662169600000	      5.60372075425090440000	     11.25779804814007400000	      7.69218274247351720000	     -8.59958596756968770000	     -0.25726472193201466000	      5.51127203722632150000	      1.35575570534869640000	     -0.00000000000000996448	      0.00000000000000034545	    -43.55020150827426300000	     -1.10910330878345590000	     10.66557227119443100000	     -0.71256904642364494000	      3.97339629828154230000	     -0.00000000000006322830	      0.00000000000048664612	    -25.29066316312855600000	     -0.15509817968492792000	    -12.07880789979941100000	      1.91634493940316060000	     -0.24168840921994611000	     -0.07535729164808753500	     -0.74977440866842116000	    -53.05639963552867000000	     20.69089428313785500000	     68.70316578541496700000	     78.82841803260386400000	    -17.64752172831550700000	   -235.97843746671779000000	    -31.80901261479689900000	     -0.00000000000006478200	      0.00000000000002769559	      9.31311161901234820000	    -58.13097312907562800000	    -45.26388999978888000000	   -201.80318660784627000000	   -117.69071353311924000000	     -0.00000000000038215072	      0.00000000000269598593	     34.10289081095733400000	     72.80158243369200500000	     -2.29959996469889600000
      0.92300000000000049000	     -0.42673382155377637000	      0.82447750918454576000	     -0.28325111997427604000	     14.99101240417401500000	      5.57701666072033310000	     11.26809015450128000000	      7.72655570472776980000	     -8.55991008953061260000	     -0.26621206136621756000	      5.39277648057270120000	      1.33960509265799590000	     -0.00000000000000999708	      0.00000000000000035994	    -43.54537128575547900000	     -1.13828445869330070000	     10.64272409368995700000	     -0.81388438902814131000	      3.91405720419353200000	     -0.00000000000006342508	      0.00000000000048799852	    -25.27362451910581600000	     -0.11851316519869633000	    -12.07987654767451400000	      1.91853753860830100000	     -0.23941252692232365000	     -0.07475157014694332200	     -0.42827280171491677000	    -53.75937543361205700000	     20.47738132390385600000	     68.78782936942151600000	     79.87425642301826700000	    -18.14056081614547700000	   -237.99938176794785000000	    -32.79322574545820100000	     -0.00000000000006501724	      0.00000000000002976169	     10.00896433080569800000	    -58.59330543400603400000	    -46.12867109083536800000	   -203.45957928857084000000	   -119.66828542810403000000	     -0.00000000000033109062	      0.00000000000261981336	     34.05125014071671800000	     73.53776573816750800000	     -1.97497731014563270000
      0.92350000000000043000	     -0.42577400634366064000	      0.82435836864958711000	     -0.28328834308092726000	     14.99087852926021800000	      5.54996198379320660000	     11.27827529266725500000	      7.76096975593147140000	     -8.51971256123126610000	     -0.27540406741304319000	      5.27327702470737240000	      1.32296278880822360000	     -0.00000000000001002920	      0.00000000000000037437	    -43.54019133138144300000	     -1.16769627767387800000	     10.61944386827377300000	     -0.91603006109357077000	      3.85372721816508660000	     -0.00000000000006358687	      0.00000000000048934308	    -25.25661232375156800000	     -0.08156113173783635700	    -12.08078286455346100000	      1.92072190665018130000	     -0.23715209239501309000	     -0.07414007103495909300	     -0.10730156896691714000	    -54.45871042168985100000	     20.26309767495465800000	     68.86742757745432200000	     80.91491521052812200000	    -18.62537061212978200000	   -239.99349275532586000000	    -33.77548920890337300000	     -0.00000000000006401880	      0.00000000000002888164	     10.71206406771689900000	    -59.05364235069679100000	    -46.99180497015499500000	   -205.12459913322414000000	   -121.65064355543346000000	     -0.00000000000031548861	      0.00000000000275080280	     33.99710227702467300000	     74.26966787335146600000	     -1.65032877577041040000
      0.92400000000000049000	     -0.42481310108446080000	      0.82424035478454205000	     -0.28332525941601006000	     14.99090508799330100000	      5.52255858991356160000	     11.28835322644720300000	      7.79542195811802240000	     -8.47899620687884510000	     -0.28483419515632968000	      5.15278868443698100000	      1.30583016065387090000	     -0.00000000000001006125	      0.00000000000000038872	    -43.53465805987699600000	     -1.19733780981353210000	     10.59573265724648600000	     -1.01901044319820660000	      3.79240575940621260000	     -0.00000000000006372722	      0.00000000000049068948	    -25.23962791550168200000	     -0.04424417346651429000	    -12.08152696488093800000	      1.92289776416171020000	     -0.23490581528809040000	     -0.07352435491264323900	      0.21347372270893672000	    -55.15423351451081400000	     20.04850681121935800000	     68.94047793415379000000	     81.94960110549534700000	    -19.09347727572119200000	   -241.95521998871646000000	    -34.75473568058222900000	     -0.00000000000006494544	      0.00000000000003004416	     11.42221039158553000000	    -59.51215281064169500000	    -47.85284047474597500000	   -206.79829596114308000000	   -123.63785459810863000000	     -0.00000000000023722582	      0.00000000000265706043	     33.94008506781569400000	     74.99742962441752100000	     -1.32606233370400340000
      0.92450000000000043000	     -0.42385110983613367000	      0.82412345958086197000	     -0.28336186569639343000	     14.99109171209601000000	      5.49480834161134620000	     11.29832340220338000000	      7.82991026583045180000	     -8.43776347549703230000	     -0.29450096585556390000	      5.03132310359968040000	      1.28820801944373200000	     -0.00000000000001009407	      0.00000000000000040381	    -43.52876777432246800000	     -1.22720793891025440000	     10.57159115536337500000	     -1.12282970141522910000	      3.73008874184759610000	     -0.00000000000006384896	      0.00000000000049203072	    -25.22267244977025800000	     -0.00656459739671823130	    -12.08210866522800400000	      1.92506614744884730000	     -0.23267923309272084000	     -0.07289798272272163300	      0.53244311458512061000	    -55.84621171938149300000	     19.83145649227767000000	     69.01397491430771000000	     82.98129151012678100000	    -19.58355833124825600000	   -243.91006063286969000000	    -35.73399366411471300000	     -0.00000000000006486055	      0.00000000000002984124	     12.14047807626781000000	    -59.96766545965844800000	    -48.71316133318654800000	   -208.48003055850154000000	   -125.62884342954776000000	     -0.00000000000028011799	      0.00000000000275322042	     33.88186804339660800000	     75.71976665874989000000	     -1.00015649386701180000
